{
  "accessors": [
    {
      "bufferView": 0,
      "componentType": 5126,
      "count": 72749,
      "max": [
        0.13238300383091,
        0.332356005907059,
        0.0607680007815361
      ],
      "min": [
        -0.132621005177498,
        -0.332314014434814,
        -0.0608129985630512
      ],
      "type": "VEC3"
    },
    {
      "bufferView": 1,
      "componentType": 5126,
      "count": 72749,
      "type": "VEC3"
    },
    {
      "bufferView": 2,
      "componentType": 5126,
      "count": 72749,
      "type": "VEC2"
    },
    {
      "bufferView": 3,
      "componentType": 5125,
      "count": 300000,
      "type": "SCALAR"
    }
  ],
  "asset": {
    "generator": "MeshSmith mesh conversion tool",
    "version": "2.0"
  },
  "bufferViews": [
    {
      "buffer": 0,
      "byteLength": 872988,
      "target": 34962
    },
    {
      "buffer": 0,
      "byteLength": 872988,
      "byteOffset": 872988,
      "target": 34962
    },
    {
      "buffer": 0,
      "byteLength": 581992,
      "byteOffset": 1745976,
      "target": 34962
    },
    {
      "buffer": 0,
      "byteLength": 1200000,
      "byteOffset": 2327968,
      "target": 34963
    }
  ],
  "buffers": [
    {
      "byteLength": 3527968,
      "uri": "2019-10-1a-g_001-100k-2048.bin"
    }
  ],
  "images": [
    {
      "uri": "2019-10-1a-g_001-100k-2048-diffuse.jpg"
    },
    {
      "uri": "2019-10-1a-g_001-100k-2048-occlusion.jpg"
    },
    {
      "uri": "2019-10-1a-g_001-100k-2048-normals.jpg"
    },
    {
      "uri": "2019-10-1a-g_001_1M-100k-2048-roughness.jpg"
    }
  ],
  "materials": [
    {
      "name": "default",
      "normalTexture": {
        "index": 2
      },
      "occlusionTexture": {
        "index": 1
      },
      "pbrMetallicRoughness": {
        "baseColorTexture": {
          "index": 0
        },
        "metallicRoughnessTexture": {
          "index": 3,
          "texCoord": 0
        }
      }
    }
  ],
  "meshes": [
    {
      "primitives": [
        {
          "attributes": {
            "NORMAL": 1,
            "POSITION": 0,
            "TEXCOORD_0": 2
          },
          "indices": 3,
          "material": 0,
          "mode": 4
        }
      ]
    }
  ],
  "nodes": [
    {
      "mesh": 0
    }
  ],
  "scene": 0,
  "scenes": [
    {
      "nodes": [
        0
      ]
    }
  ],
  "textures": [
    {
      "source": 0
    },
    {
      "source": 1
    },
    {
      "source": 2
    },
    {
      "source": 3
    }
  ]
}